<mxfile host="app.diagrams.net" modified="2024-03-28T13:20:18.212Z" agent="Mozilla/5.0 (X11; Linux x86_64) AppleWebKit/537.36 (KHTML, like Gecko) Chrome/121.0.0.0 Safari/537.36" etag="Vs0ku36FW3_Nl-4V7DID" version="24.2.0" type="github">
  <diagram id="C5RBs43oDa-KdzZeNtuy" name="Page-1">
    <mxGraphModel dx="1366" dy="766" grid="1" gridSize="10" guides="1" tooltips="1" connect="1" arrows="1" fold="1" page="1" pageScale="1" pageWidth="827" pageHeight="1169" math="0" shadow="0">
      <root>
        <mxCell id="WIyWlLk6GJQsqaUBKTNV-0" />
        <mxCell id="WIyWlLk6GJQsqaUBKTNV-1" parent="WIyWlLk6GJQsqaUBKTNV-0" />
        <mxCell id="O5mPSuRe16jmmdqVMXvW-7" style="edgeStyle=orthogonalEdgeStyle;rounded=0;orthogonalLoop=1;jettySize=auto;html=1;exitX=0.5;exitY=1;exitDx=0;exitDy=0;entryX=0.5;entryY=0;entryDx=0;entryDy=0;labelBackgroundColor=none;strokeColor=#23445D;fontColor=default;" edge="1" parent="WIyWlLk6GJQsqaUBKTNV-1" source="WIyWlLk6GJQsqaUBKTNV-6" target="O5mPSuRe16jmmdqVMXvW-6">
          <mxGeometry relative="1" as="geometry" />
        </mxCell>
        <mxCell id="O5mPSuRe16jmmdqVMXvW-8" value="Nej" style="edgeLabel;html=1;align=center;verticalAlign=middle;resizable=0;points=[];labelBackgroundColor=none;fontColor=#FFFFFF;" vertex="1" connectable="0" parent="O5mPSuRe16jmmdqVMXvW-7">
          <mxGeometry x="-0.03" y="1" relative="1" as="geometry">
            <mxPoint as="offset" />
          </mxGeometry>
        </mxCell>
        <mxCell id="O5mPSuRe16jmmdqVMXvW-11" value="" style="edgeStyle=orthogonalEdgeStyle;rounded=0;orthogonalLoop=1;jettySize=auto;html=1;labelBackgroundColor=none;strokeColor=#23445D;fontColor=default;" edge="1" parent="WIyWlLk6GJQsqaUBKTNV-1" source="WIyWlLk6GJQsqaUBKTNV-6" target="O5mPSuRe16jmmdqVMXvW-10">
          <mxGeometry relative="1" as="geometry" />
        </mxCell>
        <mxCell id="O5mPSuRe16jmmdqVMXvW-15" value="Ja" style="edgeLabel;html=1;align=center;verticalAlign=middle;resizable=0;points=[];labelBackgroundColor=none;fontColor=#FFFFFF;" vertex="1" connectable="0" parent="O5mPSuRe16jmmdqVMXvW-11">
          <mxGeometry x="-0.3704" relative="1" as="geometry">
            <mxPoint as="offset" />
          </mxGeometry>
        </mxCell>
        <mxCell id="WIyWlLk6GJQsqaUBKTNV-6" value="Är H sensor HIGH&lt;div&gt;och V sensor LOW&lt;/div&gt;" style="rhombus;whiteSpace=wrap;html=1;shadow=0;fontFamily=Helvetica;fontSize=12;align=center;strokeWidth=1;spacing=6;spacingTop=-4;labelBackgroundColor=none;fillColor=#182E3E;strokeColor=#FFFFFF;fontColor=#FFFFFF;" parent="WIyWlLk6GJQsqaUBKTNV-1" vertex="1">
          <mxGeometry x="327.5" y="340" width="125" height="120" as="geometry" />
        </mxCell>
        <mxCell id="O5mPSuRe16jmmdqVMXvW-24" style="edgeStyle=orthogonalEdgeStyle;rounded=0;orthogonalLoop=1;jettySize=auto;html=1;exitX=1;exitY=0.5;exitDx=0;exitDy=0;entryX=0;entryY=0.5;entryDx=0;entryDy=0;labelBackgroundColor=none;strokeColor=#23445D;fontColor=default;" edge="1" parent="WIyWlLk6GJQsqaUBKTNV-1" source="WIyWlLk6GJQsqaUBKTNV-10" target="O5mPSuRe16jmmdqVMXvW-23">
          <mxGeometry relative="1" as="geometry" />
        </mxCell>
        <mxCell id="O5mPSuRe16jmmdqVMXvW-29" value="Ja" style="edgeLabel;html=1;align=center;verticalAlign=middle;resizable=0;points=[];labelBackgroundColor=none;fontColor=#FFFFFF;" vertex="1" connectable="0" parent="O5mPSuRe16jmmdqVMXvW-24">
          <mxGeometry x="-0.1121" y="-1" relative="1" as="geometry">
            <mxPoint as="offset" />
          </mxGeometry>
        </mxCell>
        <mxCell id="WIyWlLk6GJQsqaUBKTNV-10" value="Är H och V sensor HIGH" style="rhombus;whiteSpace=wrap;html=1;shadow=0;fontFamily=Helvetica;fontSize=12;align=center;strokeWidth=1;spacing=6;spacingTop=-4;labelBackgroundColor=none;fillColor=#182E3E;strokeColor=#FFFFFF;fontColor=#FFFFFF;" parent="WIyWlLk6GJQsqaUBKTNV-1" vertex="1">
          <mxGeometry x="328.75" y="660" width="122.5" height="120" as="geometry" />
        </mxCell>
        <mxCell id="O5mPSuRe16jmmdqVMXvW-4" style="edgeStyle=orthogonalEdgeStyle;rounded=0;orthogonalLoop=1;jettySize=auto;html=1;exitX=0.5;exitY=1;exitDx=0;exitDy=0;entryX=0.5;entryY=0;entryDx=0;entryDy=0;labelBackgroundColor=none;strokeColor=#23445D;fontColor=default;" edge="1" parent="WIyWlLk6GJQsqaUBKTNV-1" source="O5mPSuRe16jmmdqVMXvW-0" target="O5mPSuRe16jmmdqVMXvW-3">
          <mxGeometry relative="1" as="geometry" />
        </mxCell>
        <mxCell id="O5mPSuRe16jmmdqVMXvW-0" value="Start" style="ellipse;whiteSpace=wrap;html=1;labelBackgroundColor=none;fillColor=#182E3E;strokeColor=#FFFFFF;fontColor=#FFFFFF;" vertex="1" parent="WIyWlLk6GJQsqaUBKTNV-1">
          <mxGeometry x="355" y="80" width="70" height="40" as="geometry" />
        </mxCell>
        <mxCell id="O5mPSuRe16jmmdqVMXvW-13" style="edgeStyle=orthogonalEdgeStyle;rounded=0;orthogonalLoop=1;jettySize=auto;html=1;exitX=0.5;exitY=1;exitDx=0;exitDy=0;entryX=0.5;entryY=0;entryDx=0;entryDy=0;labelBackgroundColor=none;strokeColor=#23445D;fontColor=default;" edge="1" parent="WIyWlLk6GJQsqaUBKTNV-1" source="O5mPSuRe16jmmdqVMXvW-3" target="O5mPSuRe16jmmdqVMXvW-12">
          <mxGeometry relative="1" as="geometry" />
        </mxCell>
        <mxCell id="O5mPSuRe16jmmdqVMXvW-3" value="Aktiv motor HIGH" style="whiteSpace=wrap;html=1;labelBackgroundColor=none;fillColor=#182E3E;strokeColor=#FFFFFF;fontColor=#FFFFFF;" vertex="1" parent="WIyWlLk6GJQsqaUBKTNV-1">
          <mxGeometry x="340" y="160" width="100" height="40" as="geometry" />
        </mxCell>
        <mxCell id="O5mPSuRe16jmmdqVMXvW-19" style="edgeStyle=orthogonalEdgeStyle;rounded=0;orthogonalLoop=1;jettySize=auto;html=1;exitX=1;exitY=0.5;exitDx=0;exitDy=0;entryX=0;entryY=0.5;entryDx=0;entryDy=0;labelBackgroundColor=none;strokeColor=#23445D;fontColor=default;" edge="1" parent="WIyWlLk6GJQsqaUBKTNV-1" source="O5mPSuRe16jmmdqVMXvW-6" target="O5mPSuRe16jmmdqVMXvW-18">
          <mxGeometry relative="1" as="geometry" />
        </mxCell>
        <mxCell id="O5mPSuRe16jmmdqVMXvW-28" value="Ja" style="edgeLabel;html=1;align=center;verticalAlign=middle;resizable=0;points=[];labelBackgroundColor=none;fontColor=#FFFFFF;" vertex="1" connectable="0" parent="O5mPSuRe16jmmdqVMXvW-19">
          <mxGeometry x="-0.229" y="1" relative="1" as="geometry">
            <mxPoint as="offset" />
          </mxGeometry>
        </mxCell>
        <mxCell id="O5mPSuRe16jmmdqVMXvW-21" style="edgeStyle=orthogonalEdgeStyle;rounded=0;orthogonalLoop=1;jettySize=auto;html=1;exitX=0.5;exitY=1;exitDx=0;exitDy=0;entryX=0.5;entryY=0;entryDx=0;entryDy=0;labelBackgroundColor=none;strokeColor=#23445D;fontColor=default;" edge="1" parent="WIyWlLk6GJQsqaUBKTNV-1" source="O5mPSuRe16jmmdqVMXvW-6" target="WIyWlLk6GJQsqaUBKTNV-10">
          <mxGeometry relative="1" as="geometry" />
        </mxCell>
        <mxCell id="O5mPSuRe16jmmdqVMXvW-22" value="Nej" style="edgeLabel;html=1;align=center;verticalAlign=middle;resizable=0;points=[];labelBackgroundColor=none;fontColor=#FFFFFF;" vertex="1" connectable="0" parent="O5mPSuRe16jmmdqVMXvW-21">
          <mxGeometry x="-0.07" y="1" relative="1" as="geometry">
            <mxPoint as="offset" />
          </mxGeometry>
        </mxCell>
        <mxCell id="O5mPSuRe16jmmdqVMXvW-6" value="Är H sensor LOW&lt;div&gt;och V sensor HIGH&lt;/div&gt;" style="rhombus;whiteSpace=wrap;html=1;shadow=0;fontFamily=Helvetica;fontSize=12;align=center;strokeWidth=1;spacing=6;spacingTop=-4;labelBackgroundColor=none;fillColor=#182E3E;strokeColor=#FFFFFF;fontColor=#FFFFFF;" vertex="1" parent="WIyWlLk6GJQsqaUBKTNV-1">
          <mxGeometry x="327.5" y="500" width="125" height="120" as="geometry" />
        </mxCell>
        <mxCell id="O5mPSuRe16jmmdqVMXvW-33" style="edgeStyle=orthogonalEdgeStyle;rounded=0;orthogonalLoop=1;jettySize=auto;html=1;exitX=1;exitY=0.5;exitDx=0;exitDy=0;endArrow=none;endFill=0;labelBackgroundColor=none;strokeColor=#23445D;fontColor=default;" edge="1" parent="WIyWlLk6GJQsqaUBKTNV-1" source="O5mPSuRe16jmmdqVMXvW-10">
          <mxGeometry relative="1" as="geometry">
            <mxPoint x="680" y="399.8461538461538" as="targetPoint" />
          </mxGeometry>
        </mxCell>
        <mxCell id="O5mPSuRe16jmmdqVMXvW-10" value="Sätt V motor till aktiv motor" style="whiteSpace=wrap;html=1;shadow=0;strokeWidth=1;spacing=6;spacingTop=-4;labelBackgroundColor=none;fillColor=#182E3E;strokeColor=#FFFFFF;fontColor=#FFFFFF;" vertex="1" parent="WIyWlLk6GJQsqaUBKTNV-1">
          <mxGeometry x="510" y="370" width="120" height="60" as="geometry" />
        </mxCell>
        <mxCell id="O5mPSuRe16jmmdqVMXvW-14" style="edgeStyle=orthogonalEdgeStyle;rounded=0;orthogonalLoop=1;jettySize=auto;html=1;exitX=0.5;exitY=1;exitDx=0;exitDy=0;entryX=0.5;entryY=0;entryDx=0;entryDy=0;labelBackgroundColor=none;strokeColor=#23445D;fontColor=default;" edge="1" parent="WIyWlLk6GJQsqaUBKTNV-1" source="O5mPSuRe16jmmdqVMXvW-12" target="WIyWlLk6GJQsqaUBKTNV-6">
          <mxGeometry relative="1" as="geometry" />
        </mxCell>
        <mxCell id="O5mPSuRe16jmmdqVMXvW-12" value="Läs sensorernas status" style="shape=parallelogram;perimeter=parallelogramPerimeter;whiteSpace=wrap;html=1;fixedSize=1;labelBackgroundColor=none;fillColor=#182E3E;strokeColor=#FFFFFF;fontColor=#FFFFFF;" vertex="1" parent="WIyWlLk6GJQsqaUBKTNV-1">
          <mxGeometry x="330" y="250" width="120" height="50" as="geometry" />
        </mxCell>
        <mxCell id="O5mPSuRe16jmmdqVMXvW-32" style="edgeStyle=orthogonalEdgeStyle;rounded=0;orthogonalLoop=1;jettySize=auto;html=1;exitX=1;exitY=0.5;exitDx=0;exitDy=0;endArrow=none;endFill=0;labelBackgroundColor=none;strokeColor=#23445D;fontColor=default;" edge="1" parent="WIyWlLk6GJQsqaUBKTNV-1" source="O5mPSuRe16jmmdqVMXvW-18">
          <mxGeometry relative="1" as="geometry">
            <mxPoint x="680" y="559.8461538461538" as="targetPoint" />
          </mxGeometry>
        </mxCell>
        <mxCell id="O5mPSuRe16jmmdqVMXvW-18" value="Sätt H motor till aktiv motor" style="whiteSpace=wrap;html=1;shadow=0;strokeWidth=1;spacing=6;spacingTop=-4;labelBackgroundColor=none;fillColor=#182E3E;strokeColor=#FFFFFF;fontColor=#FFFFFF;" vertex="1" parent="WIyWlLk6GJQsqaUBKTNV-1">
          <mxGeometry x="510" y="530" width="120" height="60" as="geometry" />
        </mxCell>
        <mxCell id="O5mPSuRe16jmmdqVMXvW-34" style="edgeStyle=orthogonalEdgeStyle;rounded=0;orthogonalLoop=1;jettySize=auto;html=1;exitX=1;exitY=0.5;exitDx=0;exitDy=0;endArrow=none;endFill=0;labelBackgroundColor=none;strokeColor=#23445D;fontColor=default;" edge="1" parent="WIyWlLk6GJQsqaUBKTNV-1" source="O5mPSuRe16jmmdqVMXvW-23">
          <mxGeometry relative="1" as="geometry">
            <mxPoint x="680" y="719.8461538461538" as="targetPoint" />
          </mxGeometry>
        </mxCell>
        <mxCell id="O5mPSuRe16jmmdqVMXvW-23" value="Sätt aktiv motor till inaktiv motor och inaktiv till aktiv" style="whiteSpace=wrap;html=1;shadow=0;strokeWidth=1;spacing=6;spacingTop=-4;labelBackgroundColor=none;fillColor=#182E3E;strokeColor=#FFFFFF;fontColor=#FFFFFF;" vertex="1" parent="WIyWlLk6GJQsqaUBKTNV-1">
          <mxGeometry x="510" y="690" width="120" height="60" as="geometry" />
        </mxCell>
        <mxCell id="O5mPSuRe16jmmdqVMXvW-38" value="" style="edgeStyle=orthogonalEdgeStyle;rounded=0;orthogonalLoop=1;jettySize=auto;html=1;exitX=0.5;exitY=1;exitDx=0;exitDy=0;entryX=1;entryY=0.5;entryDx=0;entryDy=0;labelBackgroundColor=none;strokeColor=#23445D;fontColor=default;" edge="1" parent="WIyWlLk6GJQsqaUBKTNV-1" source="WIyWlLk6GJQsqaUBKTNV-10" target="O5mPSuRe16jmmdqVMXvW-37">
          <mxGeometry relative="1" as="geometry">
            <mxPoint x="390" y="780" as="sourcePoint" />
            <mxPoint x="700" y="220" as="targetPoint" />
            <Array as="points">
              <mxPoint x="390" y="810" />
              <mxPoint x="680" y="810" />
              <mxPoint x="680" y="275" />
            </Array>
          </mxGeometry>
        </mxCell>
        <mxCell id="O5mPSuRe16jmmdqVMXvW-39" value="Nej" style="edgeLabel;html=1;align=center;verticalAlign=middle;resizable=0;points=[];labelBackgroundColor=none;fontColor=#FFFFFF;" vertex="1" connectable="0" parent="O5mPSuRe16jmmdqVMXvW-38">
          <mxGeometry x="-0.9581" y="1" relative="1" as="geometry">
            <mxPoint x="-1" y="-13" as="offset" />
          </mxGeometry>
        </mxCell>
        <mxCell id="O5mPSuRe16jmmdqVMXvW-40" style="edgeStyle=orthogonalEdgeStyle;rounded=0;orthogonalLoop=1;jettySize=auto;html=1;exitX=0;exitY=0.5;exitDx=0;exitDy=0;entryX=1;entryY=0.5;entryDx=0;entryDy=0;labelBackgroundColor=none;strokeColor=#23445D;fontColor=default;" edge="1" parent="WIyWlLk6GJQsqaUBKTNV-1" source="O5mPSuRe16jmmdqVMXvW-37" target="O5mPSuRe16jmmdqVMXvW-12">
          <mxGeometry relative="1" as="geometry" />
        </mxCell>
        <mxCell id="O5mPSuRe16jmmdqVMXvW-37" value="Sätt aktiv motor HIGH och inaktiv motor LOW" style="whiteSpace=wrap;html=1;shadow=0;strokeWidth=1;spacing=6;spacingTop=-4;labelBackgroundColor=none;fillColor=#182E3E;strokeColor=#FFFFFF;fontColor=#FFFFFF;" vertex="1" parent="WIyWlLk6GJQsqaUBKTNV-1">
          <mxGeometry x="510" y="245" width="120" height="60" as="geometry" />
        </mxCell>
      </root>
    </mxGraphModel>
  </diagram>
</mxfile>
